<?xml version="1.0" encoding="UTF-8"?>
<svg width="191px" height="37px" viewBox="0 0 191 37" version="1.1" xmlns="http://www.w3.org/2000/svg" xmlns:xlink="http://www.w3.org/1999/xlink">
    <title>Combined Shape</title>
    <g id="Design-2.2" stroke="none" stroke-width="1" fill="none" fill-rule="evenodd">
        <g id="Materials---Index" transform="translate(-388.000000, -54.000000)" fill="#009ADE" fill-rule="nonzero">
            <path d="M391.335,69.426 L388.794,55.734 L391.965,55.734 L392.91,62.139 C392.994,62.853 393.085,63.5705 393.183,64.2915 C393.281,65.0125 393.372,65.737 393.456,66.465 L393.54,66.465 C393.68,65.737 393.8165,65.0125 393.9495,64.2915 C394.0825,63.5705 394.219,62.853 394.359,62.139 L395.829,55.734 L398.454,55.734 L399.924,62.139 C400.064,62.825 400.2005,63.532 400.3335,64.26 C400.4665,64.988 400.603,65.723 400.743,66.465 L400.827,66.465 C400.925,65.723 401.0195,64.9915 401.1105,64.2705 C401.2015,63.5495 401.296,62.839 401.394,62.139 L402.339,55.734 L405.3,55.734 L402.864,69.426 L398.979,69.426 L397.635,63.21 C397.523,62.678 397.4215,62.1425 397.3305,61.6035 C397.2395,61.0645 397.159,60.543 397.089,60.039 L397.005,60.039 C396.921,60.543 396.8335,61.0645 396.7425,61.6035 C396.6515,62.1425 396.55,62.678 396.438,63.21 L395.157,69.426 L391.335,69.426 Z M407.19,69.426 L407.19,55.734 L410.277,55.734 L410.277,61.005 L415.002,61.005 L415.002,55.734 L418.11,55.734 L418.11,69.426 L415.002,69.426 L415.002,63.714 L410.277,63.714 L410.277,69.426 L407.19,69.426 Z M426.909,69.678 C425.677,69.678 424.5955,69.391 423.6645,68.817 C422.7335,68.243 422.0055,67.4205 421.4805,66.3495 C420.9555,65.2785 420.693,64.001 420.693,62.517 C420.693,61.019 420.9555,59.7485 421.4805,58.7055 C422.0055,57.6625 422.7335,56.8645 423.6645,56.3115 C424.5955,55.7585 425.677,55.482 426.909,55.482 C428.141,55.482 429.2225,55.7585 430.1535,56.3115 C431.0845,56.8645 431.8125,57.666 432.3375,58.716 C432.8625,59.766 433.125,61.033 433.125,62.517 C433.125,64.001 432.8625,65.2785 432.3375,66.3495 C431.8125,67.4205 431.0845,68.243 430.1535,68.817 C429.2225,69.391 428.141,69.678 426.909,69.678 Z M426.909,67.011 C427.847,67.011 428.589,66.605 429.135,65.793 C429.681,64.981 429.954,63.889 429.954,62.517 C429.954,61.145 429.681,60.074 429.135,59.304 C428.589,58.534 427.847,58.149 426.909,58.149 C425.971,58.149 425.229,58.534 424.683,59.304 C424.137,60.074 423.864,61.145 423.864,62.517 C423.864,63.889 424.137,64.981 424.683,65.793 C425.229,66.605 425.971,67.011 426.909,67.011 Z M439.908,69.426 L439.908,55.734 L444.591,55.734 C445.543,55.734 446.397,55.8355 447.153,56.0385 C447.909,56.2415 448.511,56.588 448.959,57.078 C449.407,57.568 449.631,58.254 449.631,59.136 C449.631,59.738 449.4735,60.3295 449.1585,60.9105 C448.8435,61.4915 448.406,61.887 447.846,62.097 L447.846,62.181 C448.546,62.363 449.1305,62.7165 449.5995,63.2415 C450.0685,63.7665 450.303,64.484 450.303,65.394 C450.303,66.332 450.065,67.095 449.589,67.683 C449.113,68.271 448.476,68.7085 447.678,68.9955 C446.88,69.2825 445.984,69.426 444.99,69.426 L439.908,69.426 Z M442.995,61.215 L444.444,61.215 C445.2,61.215 445.7495,61.068 446.0925,60.774 C446.4355,60.48 446.607,60.088 446.607,59.598 C446.607,59.066 446.432,58.688 446.082,58.464 C445.732,58.24 445.193,58.128 444.465,58.128 L442.995,58.128 L442.995,61.215 Z M442.995,67.032 L444.738,67.032 C446.432,67.032 447.279,66.416 447.279,65.184 C447.279,64.582 447.069,64.1515 446.649,63.8925 C446.229,63.6335 445.592,63.504 444.738,63.504 L442.995,63.504 L442.995,67.032 Z M452.361,69.426 L452.361,59.01 L455.448,59.01 L455.448,69.426 L452.361,69.426 Z M453.894,57.477 C453.376,57.477 452.956,57.33 452.634,57.036 C452.312,56.742 452.151,56.35 452.151,55.86 C452.151,55.37 452.312,54.978 452.634,54.684 C452.956,54.39 453.376,54.243 453.894,54.243 C454.412,54.243 454.832,54.39 455.154,54.684 C455.476,54.978 455.637,55.37 455.637,55.86 C455.637,56.35 455.476,56.742 455.154,57.036 C454.832,57.33 454.412,57.477 453.894,57.477 Z M462.63,69.678 C461.748,69.678 460.9185,69.4645 460.1415,69.0375 C459.3645,68.6105 458.738,67.9875 458.262,67.1685 C457.786,66.3495 457.548,65.366 457.548,64.218 C457.548,63.056 457.786,62.069 458.262,61.257 C458.738,60.445 459.3645,59.8255 460.1415,59.3985 C460.9185,58.9715 461.748,58.758 462.63,58.758 C463.512,58.758 464.338,58.9715 465.108,59.3985 C465.878,59.8255 466.501,60.445 466.977,61.257 C467.453,62.069 467.691,63.056 467.691,64.218 C467.691,65.366 467.453,66.3495 466.977,67.1685 C466.501,67.9875 465.878,68.6105 465.108,69.0375 C464.338,69.4645 463.512,69.678 462.63,69.678 Z M462.63,67.179 C463.26,67.179 463.736,66.9095 464.058,66.3705 C464.38,65.8315 464.541,65.114 464.541,64.218 C464.541,63.308 464.38,62.587 464.058,62.055 C463.736,61.523 463.26,61.257 462.63,61.257 C461.986,61.257 461.5065,61.523 461.1915,62.055 C460.8765,62.587 460.719,63.308 460.719,64.218 C460.719,65.114 460.8765,65.8315 461.1915,66.3705 C461.5065,66.9095 461.986,67.179 462.63,67.179 Z M470.064,69.426 L470.064,55.734 L473.151,55.734 L473.151,61.005 L477.876,61.005 L477.876,55.734 L480.984,55.734 L480.984,69.426 L477.876,69.426 L477.876,63.714 L473.151,63.714 L473.151,69.426 L470.064,69.426 Z M487.095,69.678 C485.961,69.678 485.1385,69.3035 484.6275,68.5545 C484.1165,67.8055 483.861,66.78 483.861,65.478 L483.861,59.01 L486.948,59.01 L486.948,65.079 C486.948,65.821 487.053,66.3355 487.263,66.6225 C487.473,66.9095 487.802,67.053 488.25,67.053 C488.642,67.053 488.971,66.962 489.237,66.78 C489.503,66.598 489.79,66.304 490.098,65.898 L490.098,59.01 L493.185,59.01 L493.185,69.426 L490.665,69.426 L490.434,67.977 L490.371,67.977 C489.937,68.495 489.461,68.908 488.943,69.216 C488.425,69.524 487.809,69.678 487.095,69.678 Z M501.354,69.678 C500.892,69.678 500.4265,69.5625 499.9575,69.3315 C499.4885,69.1005 499.051,68.761 498.645,68.313 L498.561,68.313 L498.309,69.426 L495.894,69.426 L495.894,54.705 L498.981,54.705 L498.981,58.317 L498.897,59.913 C499.303,59.549 499.744,59.2655 500.22,59.0625 C500.696,58.8595 501.172,58.758 501.648,58.758 C502.488,58.758 503.216,58.975 503.832,59.409 C504.448,59.843 504.9205,60.4555 505.2495,61.2465 C505.5785,62.0375 505.743,62.965 505.743,64.029 C505.743,65.219 505.533,66.2375 505.113,67.0845 C504.693,67.9315 504.1505,68.5755 503.4855,69.0165 C502.8205,69.4575 502.11,69.678 501.354,69.678 Z M500.64,67.158 C501.172,67.158 501.627,66.913 502.005,66.423 C502.383,65.933 502.572,65.156 502.572,64.092 C502.572,62.216 501.97,61.278 500.766,61.278 C500.15,61.278 499.555,61.593 498.981,62.223 L498.981,66.486 C499.261,66.738 499.541,66.913 499.821,67.011 C500.101,67.109 500.374,67.158 500.64,67.158 Z M516.558,69.678 C515.662,69.678 514.7695,69.51 513.8805,69.174 C512.9915,68.838 512.197,68.348 511.497,67.704 L513.261,65.583 C513.751,66.003 514.297,66.346 514.899,66.612 C515.501,66.878 516.082,67.011 516.642,67.011 C517.286,67.011 517.7655,66.892 518.0805,66.654 C518.3955,66.416 518.553,66.094 518.553,65.688 C518.553,65.254 518.3745,64.9355 518.0175,64.7325 C517.6605,64.5295 517.181,64.302 516.579,64.05 L514.794,63.294 C514.332,63.098 513.891,62.8355 513.471,62.5065 C513.051,62.1775 512.708,61.768 512.442,61.278 C512.176,60.788 512.043,60.214 512.043,59.556 C512.043,58.8 512.2495,58.114 512.6625,57.498 C513.0755,56.882 513.6495,56.392 514.3845,56.028 C515.1195,55.664 515.963,55.482 516.915,55.482 C517.699,55.482 518.483,55.636 519.267,55.944 C520.051,56.252 520.737,56.7 521.325,57.288 L519.75,59.241 C519.302,58.891 518.854,58.6215 518.406,58.4325 C517.958,58.2435 517.461,58.149 516.915,58.149 C516.383,58.149 515.9595,58.2575 515.6445,58.4745 C515.3295,58.6915 515.172,58.996 515.172,59.388 C515.172,59.808 515.3715,60.123 515.7705,60.333 C516.1695,60.543 516.663,60.767 517.251,61.005 L519.015,61.719 C519.841,62.055 520.499,62.517 520.989,63.105 C521.479,63.693 521.724,64.47 521.724,65.436 C521.724,66.192 521.521,66.892 521.115,67.536 C520.709,68.18 520.121,68.698 519.351,69.09 C518.581,69.482 517.65,69.678 516.558,69.678 Z M524.958,73.5 C524.65,73.5 524.3805,73.479 524.1495,73.437 C523.9185,73.395 523.698,73.346 523.488,73.29 L524.034,70.938 C524.132,70.952 524.244,70.9765 524.37,71.0115 C524.496,71.0465 524.615,71.064 524.727,71.064 C525.245,71.064 525.644,70.938 525.924,70.686 C526.204,70.434 526.414,70.105 526.554,69.699 L526.701,69.153 L522.69,59.01 L525.798,59.01 L527.289,63.483 C527.443,63.959 527.583,64.442 527.709,64.932 C527.835,65.422 527.968,65.926 528.108,66.444 L528.192,66.444 C528.304,65.954 528.4195,65.4605 528.5385,64.9635 C528.6575,64.4665 528.78,63.973 528.906,63.483 L530.166,59.01 L533.127,59.01 L529.515,69.531 C529.193,70.399 528.836,71.1305 528.444,71.7255 C528.052,72.3205 527.5795,72.765 527.0265,73.059 C526.4735,73.353 525.784,73.5 524.958,73.5 Z M537.81,69.678 C537.124,69.678 536.4205,69.545 535.6995,69.279 C534.9785,69.013 534.352,68.663 533.82,68.229 L535.206,66.297 C535.682,66.647 536.1405,66.9165 536.5815,67.1055 C537.0225,67.2945 537.46,67.389 537.894,67.389 C538.356,67.389 538.692,67.3085 538.902,67.1475 C539.112,66.9865 539.217,66.773 539.217,66.507 C539.217,66.269 539.1155,66.073 538.9125,65.919 C538.7095,65.765 538.447,65.6215 538.125,65.4885 C537.803,65.3555 537.46,65.219 537.096,65.079 C536.676,64.911 536.2595,64.701 535.8465,64.449 C535.4335,64.197 535.087,63.8715 534.807,63.4725 C534.527,63.0735 534.387,62.587 534.387,62.013 C534.387,61.047 534.7545,60.263 535.4895,59.661 C536.2245,59.059 537.187,58.758 538.377,58.758 C539.175,58.758 539.8785,58.8945 540.4875,59.1675 C541.0965,59.4405 541.618,59.745 542.052,60.081 L540.666,61.929 C540.302,61.649 539.938,61.432 539.574,61.278 C539.21,61.124 538.846,61.047 538.482,61.047 C537.684,61.047 537.285,61.32 537.285,61.866 C537.285,62.202 537.4845,62.4575 537.8835,62.6325 C538.2825,62.8075 538.748,62.993 539.28,63.189 C539.728,63.343 540.1655,63.5425 540.5925,63.7875 C541.0195,64.0325 541.3765,64.3545 541.6635,64.7535 C541.9505,65.1525 542.094,65.674 542.094,66.318 C542.094,67.256 541.73,68.0505 541.002,68.7015 C540.274,69.3525 539.21,69.678 537.81,69.678 Z M548.058,69.678 C546.77,69.678 545.8495,69.307 545.2965,68.565 C544.7435,67.823 544.467,66.85 544.467,65.646 L544.467,61.425 L543.039,61.425 L543.039,59.136 L544.635,59.01 L544.992,56.238 L547.554,56.238 L547.554,59.01 L550.053,59.01 L550.053,61.425 L547.554,61.425 L547.554,65.604 C547.554,66.192 547.6765,66.6155 547.9215,66.8745 C548.1665,67.1335 548.492,67.263 548.898,67.263 C549.066,67.263 549.2375,67.242 549.4125,67.2 C549.5875,67.158 549.745,67.109 549.885,67.053 L550.368,69.3 C550.102,69.384 549.7765,69.468 549.3915,69.552 C549.0065,69.636 548.562,69.678 548.058,69.678 Z M556.752,69.678 C555.758,69.678 554.862,69.461 554.064,69.027 C553.266,68.593 552.636,67.97 552.174,67.158 C551.712,66.346 551.481,65.366 551.481,64.218 C551.481,63.084 551.7155,62.111 552.1845,61.299 C552.6535,60.487 553.266,59.8605 554.022,59.4195 C554.778,58.9785 555.569,58.758 556.395,58.758 C557.389,58.758 558.2115,58.9785 558.8625,59.4195 C559.5135,59.8605 560.0035,60.4555 560.3325,61.2045 C560.6615,61.9535 560.826,62.804 560.826,63.756 C560.826,64.022 560.812,64.2845 560.784,64.5435 C560.756,64.8025 560.728,64.995 560.7,65.121 L554.463,65.121 C554.603,65.877 554.918,66.4335 555.408,66.7905 C555.898,67.1475 556.486,67.326 557.172,67.326 C557.914,67.326 558.663,67.095 559.419,66.633 L560.448,68.502 C559.916,68.866 559.321,69.153 558.663,69.363 C558.005,69.573 557.368,69.678 556.752,69.678 Z M554.442,63.084 L558.201,63.084 C558.201,62.51 558.0645,62.0375 557.7915,61.6665 C557.5185,61.2955 557.074,61.11 556.458,61.11 C555.982,61.11 555.555,61.2745 555.177,61.6035 C554.799,61.9325 554.554,62.426 554.442,63.084 Z M562.968,69.426 L562.968,59.01 L565.488,59.01 L565.698,60.354 L565.782,60.354 C566.216,59.92 566.678,59.5455 567.168,59.2305 C567.658,58.9155 568.246,58.758 568.932,58.758 C569.674,58.758 570.2725,58.9085 570.7275,59.2095 C571.1825,59.5105 571.543,59.941 571.809,60.501 C572.271,60.025 572.761,59.6155 573.279,59.2725 C573.797,58.9295 574.399,58.758 575.085,58.758 C576.205,58.758 577.0275,59.1325 577.5525,59.8815 C578.0775,60.6305 578.34,61.656 578.34,62.958 L578.34,69.426 L575.253,69.426 L575.253,63.357 C575.253,62.601 575.1515,62.083 574.9485,61.803 C574.7455,61.523 574.42,61.383 573.972,61.383 C573.454,61.383 572.859,61.719 572.187,62.391 L572.187,69.426 L569.1,69.426 L569.1,63.357 C569.1,62.601 568.9985,62.083 568.7955,61.803 C568.5925,61.523 568.267,61.383 567.819,61.383 C567.301,61.383 566.713,61.719 566.055,62.391 L566.055,69.426 L562.968,69.426 Z M393.812,90.692 C392.937333,90.692 392.161333,90.468 391.484,90.02 C390.806667,89.572 390.278667,88.9373333 389.9,88.116 C389.521333,87.2946667 389.332,86.324 389.332,85.204 C389.332,84.084 389.521333,83.1213333 389.9,82.316 C390.278667,81.5106667 390.806667,80.892 391.484,80.46 C392.161333,80.028 392.937333,79.812 393.812,79.812 C394.697333,79.812 395.476,80.028 396.148,80.46 C396.82,80.892 397.348,81.5106667 397.732,82.316 C398.116,83.1213333 398.308,84.084 398.308,85.204 C398.308,86.324 398.116,87.2946667 397.732,88.116 C397.348,88.9373333 396.82,89.572 396.148,90.02 C395.476,90.468 394.697333,90.692 393.812,90.692 Z M393.812,89.524 C394.441333,89.524 394.988,89.3453333 395.452,88.988 C395.916,88.6306667 396.276,88.1293333 396.532,87.484 C396.788,86.8386667 396.916,86.0786667 396.916,85.204 C396.916,83.9026667 396.633333,82.8733333 396.068,82.116 C395.502667,81.3586667 394.750667,80.98 393.812,80.98 C392.873333,80.98 392.121333,81.3586667 391.556,82.116 C390.990667,82.8733333 390.708,83.9026667 390.708,85.204 C390.708,86.0786667 390.836,86.8386667 391.092,87.484 C391.348,88.1293333 391.710667,88.6306667 392.18,88.988 C392.649333,89.3453333 393.193333,89.524 393.812,89.524 Z M400.564,90.5 L400.564,80.004 L403.556,80.004 C404.345333,80.004 405.033333,80.1 405.62,80.292 C406.206667,80.484 406.665333,80.8066667 406.996,81.26 C407.326667,81.7133333 407.492,82.324 407.492,83.092 C407.492,84.1906667 407.134667,85.0066667 406.42,85.54 C405.705333,86.0733333 404.772,86.34 403.62,86.34 L401.892,86.34 L401.892,90.5 L400.564,90.5 Z M401.892,85.252 L403.46,85.252 C404.377333,85.252 405.057333,85.0786667 405.5,84.732 C405.942667,84.3853333 406.164,83.8386667 406.164,83.092 C406.164,82.3346667 405.932,81.8093333 405.468,81.516 C405.004,81.2226667 404.313333,81.076 403.396,81.076 L401.892,81.076 L401.892,85.252 Z M409.62,90.5 L409.62,80.004 L415.668,80.004 L415.668,81.124 L410.948,81.124 L410.948,84.42 L414.932,84.42 L414.932,85.556 L410.948,85.556 L410.948,89.364 L415.828,89.364 L415.828,90.5 L409.62,90.5 Z M418.052,90.5 L418.052,80.004 L421.332,80.004 C422.046667,80.004 422.681333,80.0973333 423.236,80.284 C423.790667,80.4706667 424.225333,80.78 424.54,81.212 C424.854667,81.644 425.012,82.2226667 425.012,82.948 C425.012,83.7586667 424.798667,84.412 424.372,84.908 C423.945333,85.404 423.369333,85.7426667 422.644,85.924 L425.316,90.5 L423.812,90.5 L421.284,86.068 L419.38,86.068 L419.38,90.5 L418.052,90.5 Z M419.38,84.98 L421.14,84.98 C421.961333,84.98 422.590667,84.812 423.028,84.476 C423.465333,84.14 423.684,83.6306667 423.684,82.948 C423.684,82.2546667 423.465333,81.7693333 423.028,81.492 C422.590667,81.2146667 421.961333,81.076 421.14,81.076 L419.38,81.076 L419.38,84.98 Z M428.964,84.628 L428.468,86.228 L431.62,86.228 L431.124,84.628 C430.932,84.0413333 430.750667,83.4573333 430.58,82.876 C430.409333,82.2946667 430.238667,81.7 430.068,81.092 L430.004,81.092 C429.844,81.7 429.678667,82.2946667 429.508,82.876 C429.337333,83.4573333 429.156,84.0413333 428.964,84.628 Z M425.764,90.5 L429.316,80.004 L430.82,80.004 L434.372,90.5 L432.948,90.5 L431.956,87.3 L428.132,87.3 L427.124,90.5 L425.764,90.5 Z M438.036,90.5 L438.036,81.124 L434.868,81.124 L434.868,80.004 L442.548,80.004 L442.548,81.124 L439.38,81.124 L439.38,90.5 L438.036,90.5 Z M444.436,90.5 L444.436,80.004 L445.764,80.004 L445.764,90.5 L444.436,90.5 Z M452.516,90.692 C451.641333,90.692 450.865333,90.468 450.188,90.02 C449.510667,89.572 448.982667,88.9373333 448.604,88.116 C448.225333,87.2946667 448.036,86.324 448.036,85.204 C448.036,84.084 448.225333,83.1213333 448.604,82.316 C448.982667,81.5106667 449.510667,80.892 450.188,80.46 C450.865333,80.028 451.641333,79.812 452.516,79.812 C453.401333,79.812 454.18,80.028 454.852,80.46 C455.524,80.892 456.052,81.5106667 456.436,82.316 C456.82,83.1213333 457.012,84.084 457.012,85.204 C457.012,86.324 456.82,87.2946667 456.436,88.116 C456.052,88.9373333 455.524,89.572 454.852,90.02 C454.18,90.468 453.401333,90.692 452.516,90.692 Z M452.516,89.524 C453.145333,89.524 453.692,89.3453333 454.156,88.988 C454.62,88.6306667 454.98,88.1293333 455.236,87.484 C455.492,86.8386667 455.62,86.0786667 455.62,85.204 C455.62,83.9026667 455.337333,82.8733333 454.772,82.116 C454.206667,81.3586667 453.454667,80.98 452.516,80.98 C451.577333,80.98 450.825333,81.3586667 450.26,82.116 C449.694667,82.8733333 449.412,83.9026667 449.412,85.204 C449.412,86.0786667 449.54,86.8386667 449.796,87.484 C450.052,88.1293333 450.414667,88.6306667 450.884,88.988 C451.353333,89.3453333 451.897333,89.524 452.516,89.524 Z M459.268,90.5 L459.268,80.004 L460.644,80.004 L464.436,86.596 L465.572,88.772 L465.636,88.772 C465.604,88.2386667 465.569333,87.6866667 465.532,87.116 C465.494667,86.5453333 465.476,85.9826667 465.476,85.428 L465.476,80.004 L466.74,80.004 L466.74,90.5 L465.364,90.5 L461.556,83.892 L460.42,81.732 L460.356,81.732 C460.398667,82.2546667 460.438667,82.7933333 460.476,83.348 C460.513333,83.9026667 460.532,84.4573333 460.532,85.012 L460.532,90.5 L459.268,90.5 Z M471.428,84.628 L470.932,86.228 L474.084,86.228 L473.588,84.628 C473.396,84.0413333 473.214667,83.4573333 473.044,82.876 C472.873333,82.2946667 472.702667,81.7 472.532,81.092 L472.468,81.092 C472.308,81.7 472.142667,82.2946667 471.972,82.876 C471.801333,83.4573333 471.62,84.0413333 471.428,84.628 Z M468.228,90.5 L471.78,80.004 L473.284,80.004 L476.836,90.5 L475.412,90.5 L474.42,87.3 L470.596,87.3 L469.588,90.5 L468.228,90.5 Z M478.324,90.5 L478.324,80.004 L479.652,80.004 L479.652,89.364 L484.244,89.364 L484.244,90.5 L478.324,90.5 Z M489.3,90.5 L489.3,80.004 L492.292,80.004 C493.081333,80.004 493.769333,80.1 494.356,80.292 C494.942667,80.484 495.401333,80.8066667 495.732,81.26 C496.062667,81.7133333 496.228,82.324 496.228,83.092 C496.228,84.1906667 495.870667,85.0066667 495.156,85.54 C494.441333,86.0733333 493.508,86.34 492.356,86.34 L490.628,86.34 L490.628,90.5 L489.3,90.5 Z M490.628,85.252 L492.196,85.252 C493.113333,85.252 493.793333,85.0786667 494.236,84.732 C494.678667,84.3853333 494.9,83.8386667 494.9,83.092 C494.9,82.3346667 494.668,81.8093333 494.204,81.516 C493.74,81.2226667 493.049333,81.076 492.132,81.076 L490.628,81.076 L490.628,85.252 Z M498.356,90.5 L498.356,80.004 L499.684,80.004 L499.684,89.364 L504.276,89.364 L504.276,90.5 L498.356,90.5 Z M507.94,84.628 L507.444,86.228 L510.596,86.228 L510.1,84.628 C509.908,84.0413333 509.726667,83.4573333 509.556,82.876 C509.385333,82.2946667 509.214667,81.7 509.044,81.092 L508.98,81.092 C508.82,81.7 508.654667,82.2946667 508.484,82.876 C508.313333,83.4573333 508.132,84.0413333 507.94,84.628 Z M504.74,90.5 L508.292,80.004 L509.796,80.004 L513.348,90.5 L511.924,90.5 L510.932,87.3 L507.108,87.3 L506.1,90.5 L504.74,90.5 Z M517.012,90.5 L517.012,81.124 L513.844,81.124 L513.844,80.004 L521.524,80.004 L521.524,81.124 L518.356,81.124 L518.356,90.5 L517.012,90.5 Z M523.412,90.5 L523.412,80.004 L529.46,80.004 L529.46,81.124 L524.74,81.124 L524.74,84.676 L528.74,84.676 L528.74,85.796 L524.74,85.796 L524.74,90.5 L523.412,90.5 Z M535.188,90.692 C534.313333,90.692 533.537333,90.468 532.86,90.02 C532.182667,89.572 531.654667,88.9373333 531.276,88.116 C530.897333,87.2946667 530.708,86.324 530.708,85.204 C530.708,84.084 530.897333,83.1213333 531.276,82.316 C531.654667,81.5106667 532.182667,80.892 532.86,80.46 C533.537333,80.028 534.313333,79.812 535.188,79.812 C536.073333,79.812 536.852,80.028 537.524,80.46 C538.196,80.892 538.724,81.5106667 539.108,82.316 C539.492,83.1213333 539.684,84.084 539.684,85.204 C539.684,86.324 539.492,87.2946667 539.108,88.116 C538.724,88.9373333 538.196,89.572 537.524,90.02 C536.852,90.468 536.073333,90.692 535.188,90.692 Z M535.188,89.524 C535.817333,89.524 536.364,89.3453333 536.828,88.988 C537.292,88.6306667 537.652,88.1293333 537.908,87.484 C538.164,86.8386667 538.292,86.0786667 538.292,85.204 C538.292,83.9026667 538.009333,82.8733333 537.444,82.116 C536.878667,81.3586667 536.126667,80.98 535.188,80.98 C534.249333,80.98 533.497333,81.3586667 532.932,82.116 C532.366667,82.8733333 532.084,83.9026667 532.084,85.204 C532.084,86.0786667 532.212,86.8386667 532.468,87.484 C532.724,88.1293333 533.086667,88.6306667 533.556,88.988 C534.025333,89.3453333 534.569333,89.524 535.188,89.524 Z M541.94,90.5 L541.94,80.004 L545.22,80.004 C545.934667,80.004 546.569333,80.0973333 547.124,80.284 C547.678667,80.4706667 548.113333,80.78 548.428,81.212 C548.742667,81.644 548.9,82.2226667 548.9,82.948 C548.9,83.7586667 548.686667,84.412 548.26,84.908 C547.833333,85.404 547.257333,85.7426667 546.532,85.924 L549.204,90.5 L547.7,90.5 L545.172,86.068 L543.268,86.068 L543.268,90.5 L541.94,90.5 Z M543.268,84.98 L545.028,84.98 C545.849333,84.98 546.478667,84.812 546.916,84.476 C547.353333,84.14 547.572,83.6306667 547.572,82.948 C547.572,82.2546667 547.353333,81.7693333 546.916,81.492 C546.478667,81.2146667 545.849333,81.076 545.028,81.076 L543.268,81.076 L543.268,84.98 Z M551.044,90.5 L551.044,80.004 L552.644,80.004 L554.66,85.604 C554.788,85.9666667 554.913333,86.332 555.036,86.7 C555.158667,87.068 555.284,87.4333333 555.412,87.796 L555.476,87.796 C555.604,87.4333333 555.724,87.068 555.836,86.7 C555.948,86.332 556.068,85.9666667 556.196,85.604 L558.18,80.004 L559.796,80.004 L559.796,90.5 L558.548,90.5 L558.548,84.724 C558.548,84.2546667 558.569333,83.7346667 558.612,83.164 C558.654667,82.5933333 558.692,82.0786667 558.724,81.62 L558.66,81.62 L557.828,84.004 L555.844,89.444 L554.964,89.444 L552.98,84.004 L552.148,81.62 L552.084,81.62 C552.116,82.0786667 552.150667,82.5933333 552.188,83.164 C552.225333,83.7346667 552.244,84.2546667 552.244,84.724 L552.244,90.5 L551.044,90.5 Z" id="Combined-Shape"></path>
        </g>
    </g>
</svg>