<?xml version="1.0" encoding="UTF-8"?>
<svg width="30px" height="30px" viewBox="0 0 30 30" version="1.1" xmlns="http://www.w3.org/2000/svg" xmlns:xlink="http://www.w3.org/1999/xlink">
    <title>Combined Shape</title>
    <g id="Design-2.2" stroke="none" stroke-width="1" fill="none" fill-rule="evenodd">
        <g id="Materials---Index" transform="translate(-1332.000000, -34.000000)" fill="#00205C" fill-rule="nonzero">
            <path d="M1347,34 C1355.27891,34 1362,40.721684 1362,49 C1362,57.278914 1355.27832,64 1347,64 C1338.72109,64 1332,57.278316 1332,49 C1332,40.721086 1338.72168,34 1347,34 Z M1347.00001,51.4418251 C1342.68643,51.4418251 1339.16834,54.8447117 1338.98404,59.1131832 C1341.1873,60.862308 1343.97268,61.9069489 1347,61.9069489 C1350.02732,61.9069489 1352.8127,60.862308 1355.01499,59.1141645 C1354.8317,54.8450516 1351.31394,51.4418251 1347.00001,51.4418251 Z M1347,36.0930511 C1339.87645,36.0930511 1334.09305,41.8767492 1334.09305,49 C1334.09305,52.0970656 1335.18638,54.9409076 1337.00777,57.1662638 L1337.11673,57.295208 C1337.82946,54.0345037 1340.11481,51.3617774 1343.13798,50.1120973 C1341.6671,48.9635963 1340.72085,47.1729833 1340.72085,45.16266 C1340.72085,41.6965076 1343.53385,38.8835068 1347,38.8835068 C1350.46615,38.8835068 1353.27915,41.6965076 1353.27915,45.16266 C1353.27915,47.1729833 1352.3329,48.9635963 1350.86178,50.1131148 C1353.88501,51.3616595 1356.1705,54.0342799 1356.88328,57.2951002 L1356.99223,57.1662638 C1358.81362,54.9409076 1359.90695,52.0970656 1359.90695,49 C1359.90695,41.8767492 1354.12325,36.0930511 1347,36.0930511 Z M1347,40.9765578 C1344.68921,40.9765578 1342.8139,42.8518718 1342.8139,45.16266 C1342.8139,47.4734482 1344.68921,49.3487621 1347,49.3487621 C1349.31079,49.3487621 1351.1861,47.4734482 1351.1861,45.16266 C1351.1861,42.8518718 1349.31079,40.9765578 1347,40.9765578 Z" id="Combined-Shape"></path>
        </g>
    </g>
</svg>