<?xml version="1.0" encoding="UTF-8"?>
<svg width="200px" height="62px" viewBox="0 0 200 62" version="1.1" xmlns="http://www.w3.org/2000/svg" xmlns:xlink="http://www.w3.org/1999/xlink">
    <title>Group 2</title>
    <g id="Design-2.2" stroke="none" stroke-width="1" fill="none" fill-rule="evenodd">
        <g id="Public-Home-Page" transform="translate(-160.000000, -40.000000)" fill="#009ADE" fill-rule="nonzero">
            <g id="Group-2" transform="translate(160.000000, 40.000000)">
                <path d="M56.4709123,11.2184288 C57.8000448,12.802369 60.1243049,13.7355164 61.4844275,15.3229 C60.5099599,10.6296162 56.8875575,6.79716957 52.6040322,5.88123892 C54.6941446,7.4548491 55.1452232,9.64137527 56.4709123,11.2184288 Z M4.98596836,23.1151972 C7.93691786,16.6933526 12.3409603,18.0534752 14.2038118,11.9346452 C13.1708073,13.8112701 8.35011966,14.6032402 6.10849991,19.4135978 C7.2482482,16.5556187 6.67665238,12.1825663 8.60492743,9.82387273 C2.84076236,14.0764079 5.2958697,20.9562178 4.98596836,23.1151972 Z M10.3300449,38.5172942 C10.8603206,41.0171651 9.29704044,44.6257941 11.7762512,48.0760291 C9.21440008,45.2042766 3.78768314,44.4742868 1.57705353,40.1081211 C4.33173218,50.7825009 11.5627636,48.578758 14.7960677,50.8961314 C12.1240294,47.056798 14.3105556,44.5052769 10.3300449,38.5172942 Z M9.50019799,45.2146067 C7.91970112,39.2541708 10.73636,37.1881618 8.58426734,31.4722036 C8.3604497,34.6951776 6.21180035,36.2653444 7.66144999,42.1465833 C5.1030422,37.1675017 1.14663499,35.3080936 0,31.8854054 C0.0791970112,41.2444261 7.59946972,42.6320954 9.50019799,45.2146067 Z M21.0491882,55.2003168 C18.8351153,52.1357368 20.3605186,50.4037326 14.1280581,44.8392817 C15.4434172,46.8708572 14.0867379,49.4258217 18.2807362,53.3994456 C14.176265,50.9891018 8.51540038,52.0221063 5.78482516,48.7819155 C10.4746656,57.7587246 18.7145981,54.095002 21.0491882,55.2106468 L21.0491882,55.2003168 Z M51.1509392,53.3994456 C55.3449374,49.4258217 53.9882582,46.8570838 55.3036172,44.8392817 C49.0849302,50.4037326 50.5965601,52.1357368 48.3824871,55.2003168 C50.7170773,54.0846719 58.9570098,57.7483945 63.6434068,48.7819155 C60.916275,52.0255496 55.2554104,50.9891018 51.1509392,53.4097757 L51.1509392,53.3994456 Z M57.6554241,48.0656991 C60.1243049,44.6223508 58.5713548,41.006835 59.1016304,38.5069642 C55.1211198,44.4949469 57.307646,47.046468 54.6252776,50.9030181 C57.8757984,48.5856447 65.0792831,50.7825009 67.8442918,40.1150078 C65.6371055,44.4742868 60.2172753,45.2042766 57.6554241,48.0760291 L57.6554241,48.0656991 Z M47.7179209,55.6238486 C45.4968796,55.0259637 43.2157071,54.6794565 40.917308,54.5908441 C38.8027577,54.5401276 36.698284,54.8978881 34.719281,55.6445087 C32.7402101,54.8981389 30.6357856,54.5403868 28.5212541,54.5908441 C26.222855,54.6794565 23.9416824,55.0259637 21.7206412,55.6238486 C17.9777215,56.6189763 14.7444175,57.3902863 11.9243152,55.9681835 C14.6273436,58.3785273 17.7780073,59.2221476 22.3335572,58.7228621 C26.1212403,58.316547 29.1892636,56.4192621 32.7634592,56.4468089 L32.9046365,56.4468089 C30.6572444,57.5717928 28.6539662,59.1292479 27.0096242,61.0299055 L28.7312983,61.2606098 C28.7312983,61.2606098 30.5459429,57.614104 34.719281,56.6637398 C38.8926192,57.614104 40.7072637,61.2606098 40.7072637,61.2606098 L42.4289379,61.0299055 C40.7813387,59.1389754 38.778438,57.5900031 36.5339256,56.4709123 L36.6751029,56.4709123 C40.2492984,56.4433655 43.3104351,58.3406504 47.1015616,58.7469655 C51.6571114,59.2393644 54.8112184,58.3819706 57.5142469,55.9922869 C54.6941446,57.4006164 51.4608405,56.6293063 47.7179209,55.6341787 L47.7179209,55.6238486 Z M8.83907512,25.0090388 C7.29645507,27.9703183 4.89988465,28.648658 5.16502247,34.777818 C3.86343681,29.3304409 0.771310022,27.3126388 0.809186853,23.8383004 C-1.33946249,32.8943064 4.40404249,33.9686311 5.87779557,37.7632009 C5.66086462,32.326154 9.13175972,31.2277258 8.83907512,25.0090388 Z M10.9946112,18.0190417 C10.4574488,18.7696916 10.0821239,19.089923 8.64969096,20.2709915 C6.49866119,21.9764235 5.02033196,24.3878566 4.47635281,27.0784911 C4.62441678,23.7591034 2.57218119,18.9900659 3.93574712,15.5122841 C-1.34290584,22.9671332 4.23876177,27.433156 4.43503263,30.1327411 C5.80548525,24.9367285 8.95270561,24.8954083 10.9946112,18.0190417 Z M64.9518792,27.0784911 C64.4073969,24.3888978 62.9306032,21.9779802 60.7819844,20.2709915 C59.3495515,19.089923 58.9742265,18.7696916 58.4370642,18.0190417 C60.4789698,24.9057383 63.6261901,24.9367285 64.979426,30.1327411 C65.1756968,27.433156 70.7573645,22.9671332 65.4752682,15.5122841 C66.8526075,18.9900659 64.8038152,23.7591034 64.9518792,27.0784911 Z M69.428232,31.8991788 C68.281597,35.321867 64.3251898,37.1812751 61.766782,42.1741301 C63.2164317,36.2791178 61.0781124,34.708951 60.8439647,31.4997504 C58.691872,37.2225953 61.5326343,39.2782742 59.928034,45.2421535 C61.8322056,42.6320954 69.3524783,41.2444261 69.4316754,31.8854054 L69.428232,31.8991788 Z M60.6029303,25.0090388 C60.3102457,31.2277258 63.7845841,32.326154 63.5642098,37.7494275 C65.0414063,33.9617444 70.7952413,32.880533 68.6328186,23.824527 C68.6741387,27.2988654 65.5820119,29.3338843 64.2907563,34.7468278 C64.5317907,28.648658 62.1352203,27.9703183 60.6029303,25.0090388 Z M12.9676497,11.2356455 C14.3002255,9.65170532 14.7513042,7.47206584 16.8379732,5.89845566 C12.5544479,6.81438631 8.91827213,10.646833 7.95757795,15.3401167 C9.29704044,13.7355164 11.6247439,12.802369 12.9538763,11.2184288 L12.9676497,11.2356455 Z M55.241637,11.951862 C57.1044884,18.0706919 61.5085309,16.7105694 64.4560371,23.132414 C64.1495791,20.9734346 66.6046864,14.0936246 60.8405213,9.84108948 C62.7687964,12.2032264 62.1972006,16.5728354 63.3369488,19.4308145 C61.0884424,14.6032402 56.2780848,13.8112701 55.2278636,11.9346452 L55.241637,11.951862 Z M40.2871752,15.4089837 C39.1577591,14.9456587 37.9741292,14.6274786 36.7646299,14.4620629 C36.7646299,14.720314 36.7646299,14.9854519 36.7646299,15.2471463 C37.875728,15.4102144 38.9627128,15.708557 40.0013773,16.1355302 C40.1419532,15.913713 40.2389508,15.6671287 40.2871752,15.4089837 Z M39.395348,7.83361741 L39.6294957,7.62357316 L39.1818604,7.43418901 L38.0042353,7.41008557 L37.6977773,7.62357316 L37.0091077,7.56503624 L37.0091077,7.73376031 C37.415029,7.75561204 37.8195732,7.79813514 38.2211663,7.8611642 L38.7962054,7.80951397 L39.395348,7.83361741 Z M37.1124081,33.2283112 C37.1124081,33.028597 36.8472703,32.8323262 36.4547286,32.6463853 L36.3824183,32.6463853 C36.3824183,32.8082227 36.3824183,33.6070795 36.3583148,33.9961779 C36.8438269,33.7792469 37.1124081,33.5450993 37.1124081,33.2283112 Z M23.4698621,18.2497461 C23.494682,18.1044399 23.5280253,17.9607189 23.5697192,17.8193275 C23.4115867,17.8549333 23.2497022,17.8711217 23.0876504,17.8675344 L23.4698621,18.2497461 Z M34.7399411,52.8898301 C47.4961919,52.8437672 57.9916549,42.8348404 58.6426959,30.0951308 C59.2937369,17.3554212 49.8732634,6.32872454 37.1881618,4.98252501 C37.1881618,5.02728854 37.1881618,5.07549541 37.160615,5.12025894 C37.1124081,5.35440663 37.0676446,5.56445087 37.0332111,5.75039168 C42.307176,6.26865904 47.2445667,8.57755451 51.0235353,12.2927535 L48.3721571,14.9441317 L48.4720142,14.4758363 L48.1276794,14.324329 L47.6524973,14.2967822 L47.7523544,13.9903242 L47.432123,12.9056695 L46.7710001,12.179123 L44.7049911,11.0875816 L44.525937,11.2769657 L44.1506121,11.3871529 C44.8566991,12.4113769 45.2382361,13.6243765 45.2455968,14.868378 C45.2455968,15.0302154 45.2455968,15.1851661 45.2455968,15.3401167 L46.2786013,16.6313723 L45.7965325,16.7415595 L46.1167639,17.2236283 L45.2111633,18.1257855 L44.8461684,17.4371159 C44.6731981,17.9148259 44.4418908,18.3693449 44.1574988,18.7903517 L44.3606563,18.9762925 L41.5681008,21.768848 C41.3993768,21.6070107 41.223766,21.45206 41.0447119,21.303996 C40.7761307,21.4279565 40.5041062,21.541587 40.225195,21.6483308 L40.462786,21.8342716 L40.3216087,21.9754489 L39.9772739,22.1579464 L39.8567567,22.5022812 L39.6535992,22.2991237 L39.0647866,22.4953945 L39.226624,22.7536456 L39.6329391,22.6469018 L39.8980769,22.6675619 L39.918737,22.5229413 L40.1218945,22.4196409 L40.1838748,22.2991237 L40.5488697,22.1958232 L40.8346676,22.1958232 C40.8897612,22.2440301 40.9482981,22.2956803 40.9999483,22.3473305 L39.8774168,23.4147685 L39.7947764,23.2976947 L38.6378114,23.4870788 L38.3795603,23.74533 L38.1281959,23.7763201 L38.8444123,23.0876504 L38.5896045,22.9602465 L37.9181516,23.8555171 L38.1144225,23.834857 L38.1144225,24.1791918 L38.3589002,24.2756056 L38.4071071,24.6199404 L38.0042353,24.5407434 L37.5841468,24.6164971 L36.5511423,24.0965515 C36.5511423,24.0965515 36.4960488,26.8236833 36.468502,28.194136 C38.8788458,28.9998795 41.4097068,30.1637312 41.4097068,33.2214245 C41.4285949,34.522277 40.7785338,35.7417917 39.6880326,36.4512852 L39.6363824,36.4857187 L39.5606288,36.5373689 C38.5896045,37.1778317 37.3431124,37.5221666 36.2619011,37.8596147 C36.2619011,37.8596147 36.2309109,40.0013773 36.2309109,40.0013773 C37.9525851,40.8553277 40.0358108,42.0983765 39.8429833,45.6553553 C39.8188799,46.5299657 39.4779884,46.7710001 39.1853038,46.8501971 C38.1685169,47.1038091 37.1316102,47.2685621 36.0862903,47.3425959 C36.0862903,47.6180638 36.0862903,47.8797583 36.0862903,48.124236 C40.5738429,47.8155458 44.8113542,45.9441205 48.0622557,42.835253 L50.8513679,45.6243651 C41.8927639,54.2576983 27.7186202,54.2865631 18.7249281,45.6897888 L21.5140403,42.9006766 C24.7309065,45.9484389 28.9019198,47.7912751 33.3212816,48.1173493 C33.3212816,47.8763149 33.3212816,47.6146205 33.3212816,47.3357092 C29.1058596,47.0145215 25.1285498,45.2556073 22.0546459,42.3531842 L22.7984092,41.6059777 L23.8314137,41.7230515 L24.3754627,41.1376823 L25.8010089,41.1858892 L26.0110531,40.6934904 L25.9594029,40.4834461 C28.0675538,42.0996014 30.5801038,43.1039066 33.2214245,43.3861887 C33.2214245,43.0831741 33.2214245,42.8180363 33.2214245,42.6011053 C30.2968817,42.2731761 27.5547182,41.0155466 25.3981371,39.0131364 L28.1906926,36.2205809 C28.871462,36.828256 29.6327137,37.3392332 30.4529725,37.7390975 C30.5099853,37.4819061 30.605157,37.2346919 30.735327,37.0056643 C30.0140713,36.6499624 29.3435733,36.1994896 28.7416284,35.6662018 L31.5410705,32.870203 C31.9891534,33.2286562 32.4943389,33.5091855 33.0354837,33.7000499 C33.0354837,33.4245821 33.0354837,33.1318975 33.0354837,32.8598729 C32.7061958,32.7166788 32.39617,32.5327456 32.1126664,32.3123806 L32.9011931,31.5238538 C32.6257253,31.4412134 32.3433707,31.3516864 32.0679028,31.2552726 L31.5376272,31.7855483 C31.2692768,31.4868968 31.0443919,31.1518878 30.8696176,30.7904206 C30.3910416,30.5830484 29.9303695,30.3365888 29.4922783,30.0535441 C27.8338221,29.0544621 26.8367856,27.2442956 26.8787769,25.3086101 C26.8317191,24.0098775 27.2302445,22.73411 28.0081952,21.6930944 L25.2259697,18.9108689 C27.2725807,16.9505146 29.8752182,15.6708444 32.6773755,15.2471463 C32.6773755,14.9785652 32.6773755,14.7134273 32.6601587,14.4620629 C29.6557856,14.8971658 26.8632615,16.2627209 24.675034,18.3668199 L24.2032953,17.9054112 C24.0965515,18.0947954 23.9725909,18.3323864 23.8279703,18.6319577 L24.1240983,18.931529 C21.645335,21.5624968 20.2380997,25.0240992 20.1780211,28.6383279 L16.2285006,28.6383279 C16.2917563,23.9699274 18.1212881,19.4988321 21.3487595,16.1252001 L22.6021383,17.3820223 C22.6617755,17.3853911 22.7215553,17.3853911 22.7811924,17.3820223 C23.0300835,17.3608354 23.2723245,17.2906206 23.4939655,17.1754214 L21.8996953,15.5811511 C22.7470066,14.7641111 23.6692953,14.0285859 24.6543739,13.3842949 C24.7083733,13.1877781 24.7739106,12.9946156 24.8506448,12.8058124 C25.0366736,12.5253482 25.2378333,12.2552195 25.4532307,11.9966255 C23.9571057,12.8193589 22.5768807,13.837159 21.3487595,15.0233287 L18.5596474,12.2342166 C22.2985388,8.57812651 27.1656045,6.29631016 32.3674741,5.76072173 C32.346814,5.66430797 32.3330406,5.58855431 32.3330406,5.58855431 C32.2986072,5.40605685 32.257287,5.2028993 32.2194102,4.9894117 C19.5218108,6.33754031 10.0972947,17.3830295 10.7644245,30.1345557 C11.4315543,42.8860818 21.9572119,52.887825 34.7261677,52.9036035 L34.7399411,52.8898301 Z M51.574471,12.8540192 C55.6432707,17.1081256 57.9394645,22.7519606 57.9963156,28.6383279 L54.0330217,28.6383279 C53.9978346,25.7075582 53.2910522,22.8238858 51.9670127,20.2090112 L52.0014462,20.1401443 L52.2734707,20.2847649 L52.3388943,20.0747207 L51.6502247,18.8385586 L50.813491,17.6815936 L49.8218067,16.8724067 C49.4774719,16.4523182 49.1331371,16.0460031 48.7646988,15.6534614 L51.574471,12.8540192 Z M46.5299657,17.9054112 L47.4768865,17.9467314 L47.7041475,18.2187559 L47.590517,18.6216277 L48.895546,19.4480313 L49.1537972,19.4170411 L50.8410378,21.3453162 L51.5297075,21.1042818 C52.6308381,23.4653085 53.2176897,26.033371 53.2513816,28.6383279 L49.3053045,28.6383279 C49.2883554,27.6272944 49.1648601,26.6208651 48.9368662,25.6357282 L49.1193637,25.3912505 L49.3638414,24.1550884 L49.1779006,22.825956 L48.7027185,21.2971093 L47.6008471,19.6856223 L47.8694282,19.8267996 L48.0037188,19.692509 L47.1187783,19.0933664 L47.0602414,19.2896372 L47.9451819,20.5533461 L48.4444674,21.5863506 L48.7888022,22.6193551 L48.9024327,23.3080247 L49.0849302,24.4718765 L48.7405954,24.4959799 C48.7405954,24.4959799 48.3583837,23.7832068 48.2413098,23.4905222 L48.4169206,23.2253844 L48.0725858,22.7433156 L48.0725858,22.2612468 L47.8315514,21.9582322 L47.5319801,21.996109 C47.4252363,21.7963948 47.3116058,21.600124 47.1876453,21.4072965 L47.4011329,21.5140403 L47.4562264,21.4589467 L47.3425959,21.2110256 L47.6008471,21.066405 L47.4837732,20.9217843 L47.1015616,21.066405 L47.2427388,20.4672624 L47.0154779,20.3364151 L46.8123203,20.8150405 C46.3826263,20.1697614 45.9024997,19.5595285 45.3764441,18.9900659 L46.5299657,17.9054112 Z M45.7379956,27.1576881 L46.4473254,26.7720331 L47.1704285,26.661846 L47.3288225,26.3175111 L47.7316943,26.0764768 L47.886645,25.7321419 L48.0106055,25.1502161 C48.0691424,25.3533736 48.1207927,25.5634179 48.1689995,25.7734621 L47.7867879,26.9132104 L47.7867879,27.2988654 L48.341167,26.5585455 C48.4601428,27.2410734 48.525765,27.9318329 48.5374378,28.6245545 L45.0940895,28.6245545 L45.0148925,28.3249832 L45.4177642,28.0047518 L45.4969612,27.8119243 L45.672572,27.6810771 L46.1408674,27.6328702 L46.1890743,27.4262693 L45.7379956,27.1576881 Z M40.9999483,24.447773 L41.3442832,24.3651327 L41.3442832,24.2824923 L40.9999483,24.0449013 L41.1204655,23.301138 L41.5439974,22.8776062 C41.8086948,23.1794696 42.0536794,23.4980646 42.2774306,23.8314137 L42.1293666,24.289379 L41.7437116,24.0139111 L41.451027,24.0931081 L41.5956476,24.3651327 L41.7402682,24.3651327 L41.5784309,24.7680044 L41.4682437,24.606167 L40.9999483,24.447773 Z M42.5115783,37.5566 L41.6576279,37.3155657 L41.4028201,37.4085361 L40.9207513,37.0400978 L40.4662294,36.8782604 C40.690047,36.716423 40.9069779,36.5339256 41.1170222,36.3686449 L41.8056919,36.864487 L42.3428542,37.1468416 L42.607992,37.4119794 L42.5115783,37.5566 Z M42.0777164,22.3301138 L44.8702719,19.5375583 C45.5231161,20.2493464 46.100115,21.027141 46.591946,21.8583751 L46.2476112,21.9547888 L46.2648279,22.5780349 L47.2978324,23.2391578 C47.5566312,23.8108986 47.7752403,24.3999926 47.9520686,25.0021521 L47.7695711,25.2707333 L47.3908028,25.5117676 L47.2978324,26.0902502 L47.0395813,26.2348708 L46.8226503,26.4896786 L46.6057194,26.4104816 L46.2200644,26.4104816 L46.443882,26.1074669 L46.6057194,25.3189401 L46.8605272,25.1605461 L46.1408674,24.4202262 L45.5796016,24.6096104 L45.4521977,25.1364427 L45.1078629,25.5186543 L44.7394246,25.2156397 L44.6085774,24.8919649 L44.8186216,24.7611177 L44.9356955,24.9746053 L45.1078629,24.9091817 L45.0321092,24.5648469 L44.7876315,24.5648469 L44.7704148,24.7094675 L44.6085774,24.7404576 L43.7305236,23.7108965 L43.4343956,23.4870788 L43.5480261,23.3631183 L43.8097206,23.2735912 L43.5686862,23.1771775 C43.5686862,23.1771775 43.2622282,23.2460445 43.2243514,23.2460445 L43.3999621,23.4664187 L42.9592135,23.4664187 C42.6943849,23.0660145 42.3997157,22.6861675 42.0777164,22.3301138 Z M43.4998192,37.1881618 L43.1210509,36.8093935 L43.4102922,36.4340685 L43.7752871,35.6903053 L43.6341098,35.4837044 L43.8751442,34.9327686 L43.8475974,34.4369265 L43.7029768,33.9238676 L43.3586419,33.8033504 L43.2312381,34.0925916 L43.0246372,34.0374981 C43.3423632,33.5820471 43.6189221,33.0992213 43.8510408,32.5947351 L44.1953756,32.4432278 L44.3950898,32.1746466 L44.4915035,32.2848338 L44.7325379,31.9955925 L44.5397104,31.7545581 L44.7153212,31.7063513 L45.0389959,31.8371985 L45.6484686,31.8371985 L46.0169068,31.644371 L46.9810444,31.3895632 L46.7985469,31.0693318 L46.7365666,30.6802335 L47.2530689,30.9074944 L47.4458964,30.793864 L47.3494826,30.3944355 L46.7262366,30.6458 L46.0375669,30.5011793 L45.5072913,29.4165246 L48.5271078,29.4165246 C48.397227,32.7753095 47.0411582,35.9700948 44.7153212,38.396777 L44.3021194,37.9801319 L44.4811735,37.4257528 L44.1574988,36.2033642 L43.4998192,37.1881618 Z M44.0335382,44.8909319 L44.4054198,44.0920751 L44.2607992,43.7477403 L44.8082916,43.2656715 L44.8082916,42.9764303 L44.3399962,42.6837457 L44.7256512,41.915879 L45.3041337,41.1583424 L44.7256512,40.5350963 L44.2917893,40.5350963 L44.0232082,40.0977911 C44.2539125,39.9049636 44.4846168,39.7086927 44.7118778,39.5020918 L47.5044333,42.2946473 C46.4520578,43.2927231 45.2872836,44.1651482 44.0335382,44.8943753 L44.0335382,44.8909319 Z M47.5182067,41.2065492 L47.8281081,40.8622144 L47.5354234,39.3333678 L47.3357092,39.2541708 L47.4596698,38.9959196 L46.7985469,38.7893187 L46.671143,39.3333678 L46.6057194,40.0220374 L46.4679855,40.1494413 L45.2628136,38.9442694 C47.7348404,36.3726904 49.1738188,32.9811631 49.3053045,29.4165246 L53.254825,29.4165246 C53.1243559,34.0292172 51.2690902,38.425337 48.055369,41.7368249 L47.5182067,41.2065492 Z M48.6063048,42.291204 C51.9660584,38.8333303 53.9041436,34.2394416 54.0364651,29.419968 L57.9825422,29.419968 C57.8509883,35.2866138 55.4980243,40.8847483 51.3988603,45.0837594 L48.6063048,42.291204 Z M24.8472014,38.465644 C24.5614035,38.169516 24.289379,37.863058 24.0276845,37.5428266 L24.1482017,36.5442556 L23.7315566,35.5870048 L23.6282561,34.0891483 L23.1599607,33.1801043 L23.2563745,32.6153952 L22.6916654,31.5307405 L22.1992666,31.2828194 L22.3989808,30.7077802 L22.1958232,30.2532583 L22.3989808,29.7333127 L22.9395865,29.7333127 L23.1289706,29.419968 L24.051788,29.419968 L24.1929652,29.6919925 L24.0207978,30.6458 L23.9106107,30.8076373 L24.2549455,31.5617306 L24.0276845,31.6856912 L23.8692905,31.485977 L23.8004235,31.5617306 L23.9588176,32.0093659 L24.2308421,32.5327549 L24.358246,32.5327549 L24.447773,32.0231393 L24.3169258,31.8509719 L24.3169258,31.5341838 L24.2756056,30.8799477 L24.447773,29.7298693 L24.2618322,29.419968 L24.9229551,29.419968 C25.0507284,31.7633912 26.0146786,33.9832867 27.6397569,35.6765319 L24.8472014,38.465644 Z M22.2302567,30.7491004 L21.8583751,31.3344696 L21.2179123,31.3344696 L21.1662621,31.2965928 C21.0576412,30.6762434 20.9909189,30.0492834 20.9665479,29.419968 L22.154503,29.419968 L21.8687051,30.3703321 L22.2302567,30.7491004 Z M23.528399,28.0391853 L23.6007093,27.2541019 L24.0690047,26.9820774 L24.9057383,27.1301413 L25.0331422,27.2816487 C24.9575459,27.7301499 24.9149636,28.1835939 24.9057383,28.6383279 L23.9588176,28.6383279 L23.528399,28.0391853 Z M27.5467865,30.9901348 L27.7430573,30.8902777 L28.2354562,31.2793761 L28.0116385,31.4618735 L28.5935644,31.8475285 L28.579791,31.4343267 L28.8896923,30.9212678 L29.2133671,31.2656027 L29.5577019,31.7407847 L28.9241258,31.871632 L29.1961503,32.415681 L29.6127955,32.1953067 L29.5714753,32.0231393 L29.8813767,31.8130951 L30.0638741,30.952258 C30.2895857,31.4571509 30.5953933,31.9222575 30.9694747,32.3295973 L28.1803626,35.1187094 C26.8126569,33.6872308 25.9536114,31.8457276 25.7355853,29.8779333 L26.3071811,30.487406 L26.8443434,30.487406 L27.5467865,30.9901348 Z M24.675034,19.4686914 L27.4641461,22.2612468 C26.8797048,22.9040697 26.3819291,23.6206352 25.9835064,24.3926794 L25.7906789,24.3926794 L25.3981371,24.5131966 L25.2604032,24.5131966 L24.8437581,24.902295 L25.3705904,24.7921078 L25.8457724,24.6715907 L25.7631321,24.8540881 L25.3464869,25.1088959 L25.1364427,25.1088959 L24.5235267,25.5771913 L23.9312708,25.5289844 L23.073877,27.126698 L23.2426011,27.4469294 L22.7777491,27.9634316 L22.7054388,28.6521013 L20.9562178,28.6521013 C21.0111572,25.2351167 22.3369594,21.9611218 24.675034,19.4686914 L24.675034,19.4686914 Z M21.0698483,40.5247663 L21.9547888,41.0447119 L22.1372863,41.1686724 L21.4968235,41.8091352 C21.1984,41.4992339 20.9091587,41.1790025 20.6290997,40.848441 L21.0698483,40.5247663 Z M20.1849078,29.419968 C20.1849078,29.8021796 20.2331147,30.1843913 20.2744349,30.5597163 L19.7923661,30.6699034 L19.692509,31.1588589 L18.6870513,32.4397844 L18.7111547,34.1993354 L17.6781502,34.5436703 L17.1134411,34.5436703 C16.5784639,32.8849468 16.2816706,31.158676 16.2319439,29.4165246 L20.1849078,29.419968 Z M16.2870375,34.5230102 L16.0563332,34.4782466 L15.8394022,34.2337689 L14.7306441,34.1373552 L15.0749789,34.6022072 L14.0419744,34.4093797 L14.3105556,34.1614586 L14.0591912,33.9135375 L13.3188713,34.2372123 L13.0537335,34.7261677 L13.1570339,35.8521426 L14.0109843,37.8768314 L14.4207427,38.5172942 L14.6548904,38.6033779 L14.0109843,37.3809893 L13.869807,36.7577432 L14.0144276,36.6062359 L13.9249006,36.2619011 L14.3139989,36.3135513 L14.9096982,37.2157086 L15.0577622,37.2742455 L15.0577622,36.6165659 L15.2987965,36.7577432 L15.3504468,37.1020781 L15.9771362,37.2673588 L16.2388306,37.081418 L16.3283577,37.1433982 L16.3283577,37.6220237 L16.6038256,37.9663585 L16.9481604,38.0421121 L17.6781502,39.2782742 L18.1223422,39.4022347 L18.2600761,38.8237522 C19.0292943,40.0948255 19.9420298,41.2732941 20.9803213,42.3359675 L18.1912091,45.1250796 C14.0457362,40.9311622 11.6544622,35.3149929 11.5042267,29.419968 L15.4537472,29.419968 C15.5004434,31.1507455 15.7807415,32.867282 16.2870375,34.5230102 L16.2870375,34.5230102 Z M18.0087117,12.7851523 L20.7978238,15.5742644 C17.4242535,19.0942685 15.5118994,23.7631689 15.4468605,28.6383279 L11.5007834,28.6383279 C11.5593861,22.7187351 13.8818903,17.0461572 17.9914949,12.7851523 L18.0087117,12.7851523 Z M46.5885027,11.3458327 L46.3509116,10.9601777 L45.8344094,10.7019266 L45.4315376,11.0083846 L45.9480399,11.2838524 L46.502419,11.7073843 L46.5885027,11.3458327 Z M44.1747155,22.4850645 L44.1747155,22.7880791 L44.8633852,22.5849216 L45.0734294,22.1682764 L44.6016907,21.5484737 L44.8530551,21.1697054 L45.4900745,21.6242274 L45.6071484,21.531257 L45.4797445,21.4417299 L45.3351239,21.1662621 L45.5968183,21.0147547 L45.3420106,20.6704199 L44.742868,20.9734346 L44.5431538,21.3487595 L44.4226366,21.6758776 L44.6877744,22.1200696 L44.5913606,22.3266705 L44.1747155,22.4850645 Z M15.629358,40.1907615 L15.6810082,40.0117074 L15.3366734,39.2403974 L14.9165849,39.0854467 L15.629358,40.1907615 Z M31.7717749,25.356817 C31.7717749,26.0179398 32.1746466,26.4862352 32.9080798,26.889107 C32.9080798,26.889107 32.9080798,26.7754765 32.9080798,26.592979 L32.4466711,26.1315703 L32.6911489,25.6873784 L32.8908631,25.6322848 C32.8908631,24.8609748 32.8598729,23.9966944 32.8564296,23.8727338 L32.8219961,23.8727338 C32.1402131,24.2515022 31.7717749,24.7060241 31.7717749,25.356817 Z" id="Shape"></path>
                <path d="M36.1792607,42.4633714 C37.4188661,43.0900608 38.5620577,43.9577845 39.0406832,45.6002617 C39.2507274,42.8800165 37.7253241,41.7023914 36.2136942,40.9069779 C36.2136942,40.9104213 36.1792607,42.4668147 36.1792607,42.4633714 Z" id="Path"></path>
                <path d="M44.4191932,14.8752647 C44.4191932,12.406384 42.6286521,9.66547871 38.238383,8.69789784 C37.7956493,8.61778607 37.3482513,8.56603052 36.8989205,8.54294716 C36.8989205,8.91482878 36.8713737,9.76877916 36.8713737,9.76877916 C36.8713737,10.0373603 36.8438269,11.0256013 36.8369402,11.2390889 C37.1204988,11.2587234 37.4023709,11.2978403 37.6805606,11.3561627 C40.2320817,11.9656354 41.144569,13.4221717 41.144569,14.8752647 C41.144569,17.2201849 39.1405403,18.1051254 36.6682162,18.773135 L35.8521426,18.9866226 C35.104936,19.1725634 34.3370694,19.3516175 33.5760894,19.5547751 C33.3040649,19.6270854 33.0354837,19.7062824 32.7669025,19.7854794 L32.7669025,19.7854794 C30.0363273,20.6187697 27.6879638,21.9341287 27.6879638,25.2948367 C27.6879638,28.6555447 30.3668888,29.8882633 32.9803901,30.6940069 C32.9643212,29.7321649 32.9459566,28.7657318 32.9252966,27.7947076 C31.7717749,27.2541019 30.9591447,26.5413288 30.9591447,25.3430436 C30.9591447,24.1447584 31.6994646,23.4629754 32.8323262,22.9326998 C33.0836906,22.8190693 33.3522717,22.7157688 33.6380697,22.6193551 C34.2888625,22.3989808 35.015409,22.2095966 35.7901624,22.0236558 L36.6062359,21.8273849 L36.6062359,21.8273849 C40.2871752,20.9665479 44.4191932,19.8130262 44.4191932,14.8752647 Z" id="Path"></path>
                <path d="M31.1829531,38.4518706 C31.1829531,39.8016631 32.1815333,40.5178796 33.176661,41.0929188 C33.176661,40.8656578 33.1353408,38.7755453 33.1353408,38.7411119 C33.1560009,38.3244667 33.5588726,38.0731023 33.8859907,37.9181516 C34.4019709,37.6899057 34.929522,37.4887697 35.4664876,37.3155657 C35.7626156,37.2122652 36.01398,37.1124081 36.2963346,37.0297677 L36.2963346,37.0297677 C38.2934766,36.4271818 40.6039633,35.6524284 40.6039633,33.2420846 C40.6039633,30.8317408 38.624038,29.7987363 36.4719453,29.0653031 C36.4719453,29.8400565 36.4340685,30.9729181 36.4168517,31.7545581 C37.3327824,32.098893 37.9388117,32.5499716 37.9388117,33.2420846 C37.9388117,34.1132517 37.0091077,34.6194239 36.3514281,34.867345 C36.0759603,34.9740888 35.6627585,35.1118227 35.5422413,35.1496996 C35.0119656,35.3149803 34.4403698,35.4940344 33.9066508,35.7006353 C33.6306977,35.8001981 33.3605446,35.9151569 33.097464,36.0449701 C32.1470998,36.5201522 31.179519,37.2191519 31.1829531,38.4518706 Z" id="Path"></path>
                <path d="M32.5361982,8.92860217 C31.7072811,9.18929858 30.9011329,9.51751608 30.1258544,9.90995644 C29.2650173,10.1957544 28.0598454,10.2542913 26.7961366,11.6109705 C26.3872776,12.0808962 26.0044914,12.5728857 25.6495016,13.0847236 C25.2707333,13.6287726 25.2535165,14.5033831 24.9608319,14.9751218 C24.5614035,15.6637915 24.6578173,16.0460031 24.6578173,16.0460031 L24.6578173,16.0666632 C24.5837576,16.3876844 24.4243371,16.6827313 24.1964086,16.9206136 C23.8116501,17.4017783 23.2021406,17.6450589 22.5918083,17.5610764 C23.1634041,17.8468743 23.9691476,17.4474459 23.9691476,17.4474459 C23.8470744,17.8202798 23.7459121,18.1996385 23.6661329,18.5837508 C24.3065957,17.1341012 24.8954083,16.6038256 25.0779058,16.4557616 C25.3533736,16.5177419 25.9249694,16.4936384 26.9855207,15.8841658 C28.1838059,15.1954961 29.9846771,14.0764079 30.4942927,13.3670781 C31.0317291,12.6395864 31.7684792,12.0834357 32.6153952,11.7659212 C32.5775184,10.6743798 32.5568583,9.73090233 32.5361982,8.92860217 Z M27.4813629,13.4566052 L26.8581168,13.5908958 L27.6018801,12.3960539 L28.4696038,12.4236007 L27.4813629,13.4566052 Z" id="Shape"></path>
                <path d="M35.0119656,38.2831465 C34.8948918,38.3244667 34.5953205,38.4518706 34.4059363,38.5172942 C34.2165522,38.5827178 33.9514144,38.692905 33.9514144,38.7617719 C33.9514144,38.8306389 34.1442419,49.2329942 34.1442419,49.4636985 C34.1442419,51.6157912 35.2392266,51.6295646 35.2392266,49.4636985 C35.2392266,49.3087478 35.4596009,38.1350826 35.4596009,38.1350826 C35.4596009,38.1350826 35.1979064,38.2211663 35.0119656,38.2831465 Z" id="Path"></path>
                <path d="M33.8756607,34.8329115 C34.2199955,34.7158377 34.5643304,34.6125372 34.8742317,34.5126801 L35.5387979,34.3060792 C35.5387979,33.6483997 35.7385121,24.5510735 35.7729456,22.8982663 C35.0568365,23.0640579 34.3499686,23.267498 33.6552864,23.5077389 C33.6793898,24.7473443 33.858444,33.8412272 33.8756607,34.8329115 Z" id="Path"></path>
                <path d="M34.777818,2.84217094e-14 C31.6994646,2.84217094e-14 33.0079369,4.56587986 33.2524146,6.05340633 C33.2524146,6.12571665 33.5003357,16.3834513 33.5485426,18.7214848 C34.016838,18.5975242 34.48169,18.4838937 34.9258819,18.3771499 L35.855586,18.1430023 C35.9003495,15.8807224 36.1276105,6.09128316 36.1344972,6.03963294 C36.3376547,4.44536267 37.9491417,2.84217094e-14 34.777818,2.84217094e-14 Z" id="Path"></path>
                <polygon id="Path" points="85.1023535 14.5550333 85.0507033 14.5550333 82.4440886 28.7898352 78.8698931 28.7898352 75.5264019 11.418143 78.3706076 11.418143 80.6948677 24.8093246 80.7396312 24.8093246 83.229172 11.418143 86.9273281 11.418143 89.3927655 24.8093246 89.4409724 24.8093246 91.8513162 11.418143 94.6059949 11.418143 91.1901933 28.7898352 87.5677909 28.7898352"></polygon>
                <path d="M99.6608302,15.7739786 C102.146928,15.7739786 105.01868,17.1513179 105.01868,22.3679906 C105.01868,27.7465007 102.146928,28.9895494 99.6608302,28.9895494 C97.1747327,28.9895494 94.2788768,27.7465007 94.2788768,22.381764 C94.2788768,17.1444312 97.1712894,15.7739786 99.6608302,15.7739786 Z M99.6608302,26.7926932 C101.554672,26.7926932 101.981647,24.5028666 101.981647,22.3611039 C101.981647,20.2193413 101.554672,17.9570614 99.6608302,17.9570614 C97.7669886,17.9570614 97.3124666,20.2227846 97.3124666,22.3611039 C97.3124666,24.4994232 97.7635453,26.7995799 99.6608302,26.7995799 L99.6608302,26.7926932 Z" id="Shape"></path>
                <path d="M106.840211,18.0879087 C106.850494,17.3819598 106.819451,16.6760142 106.747241,15.9736928 L109.402063,15.9736928 C109.426166,16.7450028 109.498476,17.5404163 109.498476,18.3117263 L109.54324,18.3117263 C109.887575,17.3165987 110.824165,15.7739786 112.642253,15.7739786 C112.81062,15.7841737 112.977725,15.8095275 113.141539,15.8497323 L113.141539,18.7352582 C112.872419,18.6538229 112.592862,18.6120635 112.311692,18.6112976 C111.103077,18.6112976 109.773944,19.3826076 109.773944,21.7722914 L109.773944,28.7898352 L106.833325,28.7898352 L106.840211,18.0879087 Z" id="Path"></path>
                <polygon id="Path" points="115.007834 10.123444 117.948453 10.123444 117.948453 28.7898352 115.007834 28.7898352"></polygon>
                <path d="M130.206773,10.123444 L130.206773,26.5998657 C130.19275,27.3310722 130.223799,28.0624481 130.299743,28.7898352 L127.545065,28.7898352 C127.475534,28.1287571 127.443345,27.4642834 127.448651,26.7995799 L127.376341,26.7995799 C126.904602,27.8945647 126.026548,28.9895494 124.129263,28.9895494 C121.095673,28.9895494 119.838851,25.9525162 119.838851,22.3955374 C119.838851,18.2118692 121.426235,15.7739786 124.060396,15.7739786 C125.435274,15.7252068 126.694032,16.5409925 127.21106,17.8158842 L127.259267,17.8158842 L127.259267,10.123444 L130.206773,10.123444 Z M124.941893,26.7272696 C126.663568,26.7272696 127.266154,24.7576744 127.266154,22.3438872 C127.266154,19.8543464 126.601587,18.0397018 124.9901,18.0397018 C123.378613,18.0397018 122.786357,19.7062824 122.786357,22.2715769 C122.786357,25.2328564 123.237436,26.7272696 124.941893,26.7272696 Z" id="Shape"></path>
                <polygon id="Path" points="139.889469 11.418143 142.926502 11.418143 142.926502 18.4873371 147.82983 18.4873371 147.82983 11.418143 150.866863 11.418143 150.866863 28.7898352 147.82983 28.7898352 147.82983 21.1249419 142.926502 21.1249419 142.926502 28.7898352 139.889469 28.7898352"></polygon>
                <path d="M162.126612,28.1700325 C160.983022,28.7024157 159.738079,28.9819408 158.476663,28.9895494 C154.540916,28.9895494 152.833015,26.0282699 152.833015,22.5677048 C152.833015,18.7352582 154.754403,15.7739786 157.860303,15.7739786 C160.491021,15.7739786 162.742971,17.3923523 162.742971,22.6193551 L162.742971,23.2150543 L155.677221,23.2150543 C155.677221,25.4050238 156.507067,26.7272696 158.776234,26.7272696 C160.577105,26.7272696 161.431056,26.1522304 161.978548,25.7286986 L162.126612,28.1700325 Z M159.898766,21.2833359 C159.898766,19.0176127 159.185992,17.8709777 157.860303,17.8709777 C156.317683,17.8709777 155.677221,19.5926519 155.677221,21.2833359 L159.898766,21.2833359 Z" id="Shape"></path>
                <path d="M165.373689,16.7208994 C166.563787,16.0916958 167.890957,15.7664091 169.237126,15.7738495 C173.024809,15.7738495 173.906306,17.7160271 173.906306,20.9390011 L173.906306,26.513782 C173.90982,27.2708834 173.966198,28.0268153 174.075031,28.7760618 L171.416766,28.7760618 C171.28745,28.2117329 171.231893,27.6330118 171.251485,27.0543877 L171.206721,27.0543877 C170.469845,28.0873922 169.543584,28.9929928 167.79092,28.9929928 C165.893635,28.9929928 164.140971,27.6156535 164.140971,25.2362998 C164.140971,21.7516313 166.843999,20.8804642 170.566259,20.8804642 L171.158515,20.8804642 L171.158515,20.4052821 C171.158515,19.1346866 170.566259,17.9639481 168.882461,17.9639481 C167.659884,17.9936153 166.482592,18.4325233 165.53897,19.2104402 L165.373689,16.7208994 Z M171.158515,22.519498 L170.89682,22.519498 C168.383176,22.519498 166.892206,23.0669903 166.892206,24.9298418 C166.892206,26.1005802 167.625639,26.8959937 168.761944,26.8959937 C170.518052,26.8959937 171.172288,25.5186543 171.172288,23.2357144 L171.158515,22.519498 Z" id="Shape"></path>
                <polygon id="Path" points="176.798719 10.123444 179.742782 10.123444 179.742782 28.7898352 176.802162 28.7898352"></polygon>
                <path d="M183.413391,13.336088 L186.354011,12.3960539 L186.354011,15.9736928 L188.795345,15.9736928 L188.795345,18.2497461 L186.354011,18.2497461 L186.354011,24.8954083 C186.354011,26.2727476 186.825749,26.661846 187.6797,26.661846 C188.0692,26.6685238 188.453716,26.5735814 188.795345,26.3863781 L188.795345,28.579791 C188.180888,28.872819 187.506345,29.0178695 186.825749,29.0033228 C184.64611,29.0033228 183.413391,27.9703183 183.413391,25.2707333 L183.413391,18.2497461 L181.464456,18.2497461 L181.464456,15.9736928 L183.406504,15.9736928 L183.413391,13.336088 Z" id="Path"></path>
                <path d="M190.310418,10.123444 L193.251037,10.123444 L193.251037,17.61617 L193.323348,17.61617 C193.843293,16.8173132 194.531963,15.7739786 196.356937,15.7739786 C199.111616,15.7739786 199.95868,17.9398447 199.95868,20.5292426 L199.95868,28.7932786 L197.01806,28.7932786 L197.01806,21.1008385 C197.01806,19.1346866 196.546322,18.3117263 195.337706,18.3117263 C193.795086,18.3117263 193.251037,19.6890656 193.251037,21.3246561 L193.251037,28.7898352 L190.310418,28.7898352 L190.310418,10.123444 Z" id="Path"></path>
                <path d="M81.9964534,33.4004786 C85.4398017,33.4004786 88.587022,36.0897337 88.587022,42.3531842 C88.587022,48.6166348 85.4363583,51.2852298 81.9964534,51.2852298 C78.5565484,51.2852298 75.409328,48.5994181 75.409328,42.3531842 C75.409328,36.1069504 78.5599917,33.4004786 81.9964534,33.4004786 Z M81.9964534,48.8335658 C83.9178417,48.8335658 85.4570184,47.1118916 85.4570184,42.3394108 C85.4570184,37.5669301 83.9178417,35.8418126 81.9964534,35.8418126 C80.075065,35.8418126 78.553105,37.5634867 78.553105,42.3394108 C78.553105,47.115335 80.0785083,48.8473392 81.9964534,48.8473392 L81.9964534,48.8335658 Z" id="Shape"></path>
                <path d="M90.5600606,40.3353821 C90.5686292,39.6283136 90.5375905,38.9213201 90.4670902,38.2177229 L93.1219117,38.2177229 C93.1460152,38.9924763 93.2148822,39.7878897 93.2148822,40.5591998 L93.263089,40.5591998 C93.6074239,39.5640721 94.5440146,38.0214521 96.3621025,38.0214521 C96.52908,38.03198 96.6949149,38.0561642 96.8579447,38.0937624 L96.8579447,40.9758449 C96.5900713,40.8941113 96.3116059,40.8523415 96.0315411,40.8518844 C94.8194825,40.8518844 93.4937934,41.6231944 93.4937934,44.0128781 L93.4937934,51.030422 L90.5600606,51.030422 L90.5600606,40.3353821 Z" id="Path"></path>
                <path d="M98.6966927,53.027564 C99.7850151,53.6953159 101.026113,54.0734536 102.301878,54.1259921 C105.056557,54.1259921 105.524852,52.10819 105.524852,50.0903879 L105.524852,48.8714426 L105.476645,48.8714426 C105.004907,49.8665703 104.17506,51.0373087 102.253671,51.0373087 C100.531997,51.0373087 97.9873629,49.8424668 97.9873629,44.6671143 C97.9873629,41.1307956 99.1959782,38.0214521 102.394849,38.0214521 C104.17506,38.0214521 105.004907,39.0923334 105.621266,40.2114216 L105.710793,40.2114216 C105.710793,39.5227519 105.783103,38.8926192 105.807207,38.2177229 L108.465472,38.2177229 C108.417265,38.9063926 108.369058,39.5640721 108.369058,40.235525 L108.369058,49.6944028 C108.369058,53.7024603 107.20865,56.5810995 102.728854,56.5810995 C101.292834,56.5716058 99.8705249,56.3009119 98.5314119,55.7822427 L98.6966927,53.027564 Z M103.269459,48.7715855 C105.118537,48.7715855 105.85197,47.3942462 105.85197,44.4674001 C105.85197,41.7781451 104.880946,40.3353821 103.482947,40.3594856 C101.940327,40.3870324 101.348071,41.8780022 101.348071,44.4915035 C101.348071,47.5182067 102.267445,48.7715855 103.269459,48.7715855 L103.269459,48.7715855 Z" id="Shape"></path>
                <path d="M111.564485,38.9649295 C112.756829,38.3387708 114.084623,38.0148033 115.431365,38.0213517 C119.219049,38.0213517 120.100546,39.9635005 120.100546,43.1864745 L120.100546,48.7853589 C120.103104,49.5435162 120.158331,50.3005798 120.265826,51.0510821 L117.611005,51.0510821 C117.480015,50.4800211 117.424448,49.894253 117.445724,49.3087478 L117.397517,49.3087478 C116.664084,50.3417523 115.737823,51.2507963 113.985159,51.2507963 C112.087874,51.2507963 110.33521,49.8734569 110.33521,47.4941033 C110.33521,44.0094348 113.034795,43.1382677 116.757055,43.1382677 L117.34931,43.1382677 L117.34931,42.6630856 C117.34931,41.3959334 116.757055,40.225195 115.073257,40.225195 C113.852433,40.2554446 112.676768,40.692986 111.733209,41.4682437 L111.564485,38.9649295 Z M117.332094,44.7635281 L117.073843,44.7635281 C114.560198,44.7635281 113.065785,45.3110204 113.065785,47.1738719 C113.065785,48.341167 113.802662,49.1400238 114.938967,49.1400238 C116.691631,49.1400238 117.332094,47.7626844 117.332094,45.4797445 L117.332094,44.7635281 Z" id="Shape"></path>
                <path d="M123.044609,40.3353821 C123.053177,39.6283136 123.022138,38.9213201 122.951638,38.2177229 L125.706317,38.2177229 C125.726977,38.8650724 125.799287,39.5365253 125.799287,40.1873181 L125.847494,40.1873181 C126.274469,39.4125648 127.104316,38.0214521 129.094572,38.0214521 C131.866467,38.0214521 132.696314,40.1873181 132.696314,42.7732727 L132.696314,51.0373087 L129.759138,51.0373087 L129.759138,43.3483119 C129.759138,41.38216 129.283956,40.5591998 128.07534,40.5591998 C126.53272,40.5591998 125.988671,41.9365391 125.988671,43.5721295 L125.988671,51.0373087 L123.048052,51.0373087 L123.044609,40.3353821 Z" id="Path"></path>
                <path d="M135.344249,32.7669025 L138.377839,32.7669025 L138.377839,35.8108224 L135.344249,35.8108224 L135.344249,32.7669025 Z M135.389012,38.2177229 L138.329632,38.2177229 L138.329632,51.0373087 L135.389012,51.0373087 L135.389012,38.2177229 Z" id="Shape"></path>
                <polygon id="Path" points="141.067094 48.3756004 146.280323 40.5591998 141.232374 40.5591998 141.232374 38.2211663 149.220942 38.2211663 149.220942 40.8622144 144.100684 48.7027185 149.386223 48.7027185 149.386223 51.040752 141.067094 51.040752"></polygon>
                <path d="M152.168449,38.9649295 C153.360642,38.3383733 154.688537,38.0143811 156.035329,38.0213388 C159.823012,38.0213388 160.704509,39.9635005 160.704509,43.1864745 L160.704509,48.7853589 C160.707068,49.5435162 160.762294,50.3005798 160.86979,51.0510821 L158.214968,51.0510821 C158.08209,50.4803274 158.026499,49.8943071 158.049688,49.3087478 L158.001481,49.3087478 C157.264604,50.3417523 156.341787,51.2507963 154.589122,51.2507963 C152.691838,51.2507963 150.93573,49.8734569 150.93573,47.4941033 C150.93573,44.0094348 153.638758,43.1382677 157.361018,43.1382677 L157.953274,43.1382677 L157.953274,42.6630856 C157.953274,41.3959334 157.361018,40.225195 155.677221,40.225195 C154.456396,40.2554446 153.280731,40.692986 152.337173,41.4682437 L152.168449,38.9649295 Z M157.953274,44.7635281 L157.705353,44.7635281 C155.191708,44.7635281 153.700739,45.3110204 153.700739,47.1738719 C153.700739,48.341167 154.434172,49.1400238 155.57392,49.1400238 C157.326584,49.1400238 157.984264,47.7626844 157.984264,45.4797445 L157.953274,44.7635281 Z" id="Shape"></path>
                <path d="M164.082434,35.5801181 L167.023053,34.6366407 L167.023053,38.2211663 L169.464387,38.2211663 L169.464387,40.4868895 L167.023053,40.4868895 L167.023053,47.1325517 C167.023053,48.509891 167.498235,48.8989894 168.352186,48.8989894 C168.740269,48.9065982 169.123625,48.8128363 169.464387,48.6269649 L169.464387,50.8169344 C168.851141,51.1099233 168.177722,51.2549856 167.498235,51.2404662 C165.315152,51.2404662 164.082434,50.2074617 164.082434,47.5078767 L164.082434,40.4834461 L162.140385,40.4834461 L162.140385,38.2211663 L164.082434,38.2211663 L164.082434,35.5801181 Z" id="Path"></path>
                <path d="M171.478746,32.7669025 L174.512336,32.7669025 L174.512336,35.8108224 L171.478746,35.8108224 L171.478746,32.7669025 Z M171.857514,38.2211663 L174.798134,38.2211663 L174.798134,51.040752 L171.857514,51.040752 L171.857514,38.2211663 Z" id="Shape"></path>
                <path d="M182.432037,38.0214521 C184.921578,38.0214521 187.786444,39.3987914 187.786444,44.6154641 C187.786444,49.9939741 184.921578,51.2370229 182.432037,51.2370229 C179.942496,51.2370229 177.050084,49.9939741 177.050084,44.6154641 C177.050084,39.3884613 179.942496,38.0214521 182.432037,38.0214521 Z M182.432037,49.0401667 C184.325878,49.0401667 184.752854,46.75034 184.752854,44.6085774 C184.752854,42.4668147 184.325878,40.2045349 182.432037,40.2045349 C180.538195,40.2045349 180.087117,42.4737014 180.087117,44.6154641 C180.087117,46.7572267 180.534752,49.0470534 182.432037,49.0470534 L182.432037,49.0401667 Z" id="Shape"></path>
                <path d="M190.348295,40.3353821 C190.3576,39.6282176 190.325407,38.9211163 190.251881,38.2177229 L193.00656,38.2177229 C193.030663,38.8650724 193.102973,39.5365253 193.102973,40.1873181 L193.15118,40.1873181 C193.574712,39.4125648 194.404559,38.0214521 196.394814,38.0214521 C199.170153,38.0214521 200,40.1873181 200,42.7732727 L200,51.0373087 L197.062824,51.0373087 L197.062824,43.3483119 C197.062824,41.38216 196.587642,40.5591998 195.375583,40.5591998 C193.836407,40.5591998 193.309574,41.9365391 193.309574,43.5721295 L193.309574,51.0373087 L190.348295,51.0373087 L190.348295,40.3353821 Z" id="Path"></path>
            </g>
        </g>
    </g>
</svg>